<?xml version="1.0" encoding="UTF-8" standalone="no"?><svg xmlns="http://www.w3.org/2000/svg" xmlns:xlink="http://www.w3.org/1999/xlink" contentScriptType="application/ecmascript" contentStyleType="text/css" height="373px" preserveAspectRatio="none" style="width:294px;height:373px;" version="1.1" viewBox="0 0 294 373" width="294px" zoomAndPan="magnify"><defs><filter height="300%" id="f16xx9nak21vy7" width="300%" x="-1" y="-1"><feGaussianBlur result="blurOut" stdDeviation="2.0"/><feColorMatrix in="blurOut" result="blurOut2" type="matrix" values="0 0 0 0 0 0 0 0 0 0 0 0 0 0 0 0 0 0 .4 0"/><feOffset dx="4.0" dy="4.0" in="blurOut2" result="blurOut3"/><feBlend in="SourceGraphic" in2="blurOut3" mode="normal"/></filter></defs><g><rect fill="#FFFFFF" filter="url(#f16xx9nak21vy7)" height="22.3516" style="stroke: #A80036; stroke-width: 1.0;" width="10" x="22.5" y="97.6094"/><rect fill="#FFFFFF" filter="url(#f16xx9nak21vy7)" height="9" style="stroke: #A80036; stroke-width: 1.0;" width="10" x="22.5" y="267.0156"/><rect fill="#FFFFFF" filter="url(#f16xx9nak21vy7)" height="30.3516" style="stroke: #A80036; stroke-width: 1.0;" width="10" x="77.5" y="119.9609"/><rect fill="#FFFFFF" filter="url(#f16xx9nak21vy7)" height="14" style="stroke: #A80036; stroke-width: 1.0;" width="10" x="77.5" y="225.0156"/><rect fill="#FFFFFF" filter="url(#f16xx9nak21vy7)" height="14" style="stroke: #A80036; stroke-width: 1.0;" width="10" x="77.5" y="253.0156"/><rect fill="#FFFFFF" filter="url(#f16xx9nak21vy7)" height="30.3516" style="stroke: #A80036; stroke-width: 1.0;" width="10" x="160" y="150.3125"/><rect fill="#FFFFFF" filter="url(#f16xx9nak21vy7)" height="30.3516" style="stroke: #A80036; stroke-width: 1.0;" width="10" x="160" y="194.6641"/><rect fill="#FFFFFF" filter="url(#f16xx9nak21vy7)" height="14" style="stroke: #A80036; stroke-width: 1.0;" width="10" x="160" y="239.0156"/><rect fill="#FFFFFF" filter="url(#f16xx9nak21vy7)" height="14" style="stroke: #A80036; stroke-width: 1.0;" width="10" x="250" y="180.6641"/><line style="stroke: #A80036; stroke-width: 1.0; stroke-dasharray: 5.0,5.0;" x1="27" x2="27" y1="87.6094" y2="285.0156"/><line style="stroke: #A80036; stroke-width: 1.0; stroke-dasharray: 5.0,5.0;" x1="82" x2="82" y1="87.6094" y2="285.0156"/><line style="stroke: #A80036; stroke-width: 1.0; stroke-dasharray: 5.0,5.0;" x1="165" x2="165" y1="87.6094" y2="285.0156"/><line style="stroke: #A80036; stroke-width: 1.0; stroke-dasharray: 5.0,5.0;" x1="255" x2="255" y1="87.6094" y2="285.0156"/><text fill="#000000" font-family="sans-serif" font-size="14" lengthAdjust="spacingAndGlyphs" textLength="33" x="8" y="84.5332">Actor</text><ellipse cx="27.5" cy="13" fill="#FEFECE" filter="url(#f16xx9nak21vy7)" rx="8" ry="8" style="stroke: #A80036; stroke-width: 2.0;"/><path d="M27.5,21 L27.5,48 M14.5,29 L40.5,29 M27.5,48 L14.5,63 M27.5,48 L40.5,63 " fill="none" filter="url(#f16xx9nak21vy7)" style="stroke: #A80036; stroke-width: 2.0;"/><text fill="#000000" font-family="sans-serif" font-size="14" lengthAdjust="spacingAndGlyphs" textLength="33" x="8" y="298.5488">Actor</text><ellipse cx="27.5" cy="311.625" fill="#FEFECE" filter="url(#f16xx9nak21vy7)" rx="8" ry="8" style="stroke: #A80036; stroke-width: 2.0;"/><path d="M27.5,319.625 L27.5,346.625 M14.5,327.625 L40.5,327.625 M27.5,346.625 L14.5,361.625 M27.5,346.625 L40.5,361.625 " fill="none" filter="url(#f16xx9nak21vy7)" style="stroke: #A80036; stroke-width: 2.0;"/><rect fill="#FEFECE" filter="url(#f16xx9nak21vy7)" height="31.6094" style="stroke: #A80036; stroke-width: 1.5;" width="45" x="58" y="51"/><text fill="#000000" font-family="sans-serif" font-size="14" lengthAdjust="spacingAndGlyphs" textLength="31" x="65" y="72.5332">Vista</text><rect fill="#FEFECE" filter="url(#f16xx9nak21vy7)" height="31.6094" style="stroke: #A80036; stroke-width: 1.5;" width="45" x="58" y="284.0156"/><text fill="#000000" font-family="sans-serif" font-size="14" lengthAdjust="spacingAndGlyphs" textLength="31" x="65" y="305.5488">Vista</text><rect fill="#FEFECE" filter="url(#f16xx9nak21vy7)" height="31.6094" style="stroke: #A80036; stroke-width: 1.5;" width="92" x="117" y="51"/><text fill="#000000" font-family="sans-serif" font-size="14" lengthAdjust="spacingAndGlyphs" textLength="78" x="124" y="72.5332">Presentador</text><rect fill="#FEFECE" filter="url(#f16xx9nak21vy7)" height="31.6094" style="stroke: #A80036; stroke-width: 1.5;" width="92" x="117" y="284.0156"/><text fill="#000000" font-family="sans-serif" font-size="14" lengthAdjust="spacingAndGlyphs" textLength="78" x="124" y="305.5488">Presentador</text><rect fill="#FEFECE" filter="url(#f16xx9nak21vy7)" height="31.6094" style="stroke: #A80036; stroke-width: 1.5;" width="60" x="223" y="51"/><text fill="#000000" font-family="sans-serif" font-size="14" lengthAdjust="spacingAndGlyphs" textLength="46" x="230" y="72.5332">Modelo</text><rect fill="#FEFECE" filter="url(#f16xx9nak21vy7)" height="31.6094" style="stroke: #A80036; stroke-width: 1.5;" width="60" x="223" y="284.0156"/><text fill="#000000" font-family="sans-serif" font-size="14" lengthAdjust="spacingAndGlyphs" textLength="46" x="230" y="305.5488">Modelo</text><rect fill="#FFFFFF" filter="url(#f16xx9nak21vy7)" height="22.3516" style="stroke: #A80036; stroke-width: 1.0;" width="10" x="22.5" y="97.6094"/><rect fill="#FFFFFF" filter="url(#f16xx9nak21vy7)" height="9" style="stroke: #A80036; stroke-width: 1.0;" width="10" x="22.5" y="267.0156"/><rect fill="#FFFFFF" filter="url(#f16xx9nak21vy7)" height="30.3516" style="stroke: #A80036; stroke-width: 1.0;" width="10" x="77.5" y="119.9609"/><rect fill="#FFFFFF" filter="url(#f16xx9nak21vy7)" height="14" style="stroke: #A80036; stroke-width: 1.0;" width="10" x="77.5" y="225.0156"/><rect fill="#FFFFFF" filter="url(#f16xx9nak21vy7)" height="14" style="stroke: #A80036; stroke-width: 1.0;" width="10" x="77.5" y="253.0156"/><rect fill="#FFFFFF" filter="url(#f16xx9nak21vy7)" height="30.3516" style="stroke: #A80036; stroke-width: 1.0;" width="10" x="160" y="150.3125"/><rect fill="#FFFFFF" filter="url(#f16xx9nak21vy7)" height="30.3516" style="stroke: #A80036; stroke-width: 1.0;" width="10" x="160" y="194.6641"/><rect fill="#FFFFFF" filter="url(#f16xx9nak21vy7)" height="14" style="stroke: #A80036; stroke-width: 1.0;" width="10" x="160" y="239.0156"/><rect fill="#FFFFFF" filter="url(#f16xx9nak21vy7)" height="14" style="stroke: #A80036; stroke-width: 1.0;" width="10" x="250" y="180.6641"/><polygon fill="#A80036" points="65.5,115.9609,75.5,119.9609,65.5,123.9609,69.5,119.9609" style="stroke: #A80036; stroke-width: 1.0;"/><line style="stroke: #A80036; stroke-width: 1.0;" x1="27.5" x2="71.5" y1="119.9609" y2="119.9609"/><text fill="#000000" font-family="sans-serif" font-size="13" lengthAdjust="spacingAndGlyphs" textLength="26" x="34.5" y="115.1045">set()</text><polygon fill="#A80036" points="148,146.3125,158,150.3125,148,154.3125,152,150.3125" style="stroke: #A80036; stroke-width: 1.0;"/><line style="stroke: #A80036; stroke-width: 1.0;" x1="82.5" x2="154" y1="150.3125" y2="150.3125"/><text fill="#000000" font-family="sans-serif" font-size="13" lengthAdjust="spacingAndGlyphs" textLength="37" x="89.5" y="145.4561">evento</text><polygon fill="#A80036" points="238,176.6641,248,180.6641,238,184.6641,242,180.6641" style="stroke: #A80036; stroke-width: 1.0;"/><line style="stroke: #A80036; stroke-width: 1.0;" x1="165" x2="244" y1="180.6641" y2="180.6641"/><text fill="#000000" font-family="sans-serif" font-size="13" lengthAdjust="spacingAndGlyphs" textLength="48" x="172" y="175.8076">get/set()</text><polygon fill="#A80036" points="181,190.6641,171,194.6641,181,198.6641,177,194.6641" style="stroke: #A80036; stroke-width: 1.0;"/><line style="stroke: #A80036; stroke-width: 1.0; stroke-dasharray: 2.0,2.0;" x1="175" x2="254" y1="194.6641" y2="194.6641"/><polygon fill="#A80036" points="98.5,221.0156,88.5,225.0156,98.5,229.0156,94.5,225.0156" style="stroke: #A80036; stroke-width: 1.0;"/><line style="stroke: #A80036; stroke-width: 1.0;" x1="92.5" x2="164" y1="225.0156" y2="225.0156"/><text fill="#000000" font-family="sans-serif" font-size="13" lengthAdjust="spacingAndGlyphs" textLength="48" x="104.5" y="220.1592">get/set()</text><polygon fill="#A80036" points="148,235.0156,158,239.0156,148,243.0156,152,239.0156" style="stroke: #A80036; stroke-width: 1.0;"/><line style="stroke: #A80036; stroke-width: 1.0; stroke-dasharray: 2.0,2.0;" x1="82.5" x2="154" y1="239.0156" y2="239.0156"/><polygon fill="#A80036" points="98.5,249.0156,88.5,253.0156,98.5,257.0156,94.5,253.0156" style="stroke: #A80036; stroke-width: 1.0;"/><line style="stroke: #A80036; stroke-width: 1.0; stroke-dasharray: 2.0,2.0;" x1="92.5" x2="164" y1="253.0156" y2="253.0156"/><polygon fill="#A80036" points="43.5,263.0156,33.5,267.0156,43.5,271.0156,39.5,267.0156" style="stroke: #A80036; stroke-width: 1.0;"/><line style="stroke: #A80036; stroke-width: 1.0; stroke-dasharray: 2.0,2.0;" x1="37.5" x2="81.5" y1="267.0156" y2="267.0156"/><!--
@startuml
actor Actor
participant Vista
participant Presentador
participant Modelo

activate Actor
Actor -> Vista : set()
deactivate Actor
activate Vista
Vista -> Presentador : evento
deactivate Vista
activate Presentador
Presentador -> Modelo : get/set()
deactivate Presentador
activate Modelo
Modelo - -> Presentador
deactivate Modelo
activate Presentador
Presentador -> Vista : get/set()
deactivate Presentador
activate Vista
Vista - -> Presentador
deactivate Vista
activate Presentador
Presentador - -> Vista
deactivate Presentador
activate Vista
Vista - -> Actor
deactivate Vista
activate Actor
@enduml

PlantUML version 1.2019.05(Sat Apr 20 18:45:36 CEST 2019)
(GPL source distribution)
Java Runtime: OpenJDK Runtime Environment
JVM: OpenJDK 64-Bit Server VM
Java Version: 1.8.0_222-b10
Operating System: Windows 10
OS Version: 10.0
Default Encoding: windows-1252
Language: es
Country: ES
--></g></svg>