<?xml version="1.0" encoding="UTF-8" standalone="no"?><svg xmlns="http://www.w3.org/2000/svg" xmlns:xlink="http://www.w3.org/1999/xlink" contentScriptType="application/ecmascript" contentStyleType="text/css" height="845px" preserveAspectRatio="none" style="width:989px;height:845px;" version="1.1" viewBox="0 0 989 845" width="989px" zoomAndPan="magnify"><defs><filter height="300%" id="f1etw5q91cq4g3" width="300%" x="-1" y="-1"><feGaussianBlur result="blurOut" stdDeviation="2.0"/><feColorMatrix in="blurOut" result="blurOut2" type="matrix" values="0 0 0 0 0 0 0 0 0 0 0 0 0 0 0 0 0 0 .4 0"/><feOffset dx="4.0" dy="4.0" in="blurOut2" result="blurOut3"/><feBlend in="SourceGraphic" in2="blurOut3" mode="normal"/></filter></defs><g><text fill="#000000" font-family="sans-serif" font-size="18" lengthAdjust="spacingAndGlyphs" textLength="207" x="384.5" y="16.708">MasterMind - Diagram</text><!--MD5=[153973e0405221f6a20dc6ad197c532d]
class MasterMind--><rect codeLine="3" fill="#FEFECE" filter="url(#f1etw5q91cq4g3)" height="48" id="MasterMind" style="stroke: #A80036; stroke-width: 1.5;" width="101" x="217" y="27.9531"/><ellipse cx="232" cy="43.9531" fill="#ADD1B2" rx="11" ry="11" style="stroke: #A80036; stroke-width: 1.0;"/><path d="M234.3438,39.625 C233.4063,39.1875 232.8125,39.0469 231.9375,39.0469 C229.3125,39.0469 227.3125,41.125 227.3125,43.8438 L227.3125,44.9688 C227.3125,47.5469 229.4219,49.4375 232.3125,49.4375 C233.5313,49.4375 234.6875,49.1406 235.4375,48.5938 C236.0156,48.1875 236.3438,47.7344 236.3438,47.3438 C236.3438,46.8906 235.9531,46.5 235.4844,46.5 C235.2656,46.5 235.0625,46.5781 234.875,46.7656 C234.4219,47.25 234.4219,47.25 234.2344,47.3438 C233.8125,47.6094 233.125,47.7344 232.3594,47.7344 C230.3125,47.7344 229.0156,46.6406 229.0156,44.9375 L229.0156,43.8438 C229.0156,42.0625 230.2656,40.75 232,40.75 C232.5781,40.75 233.1875,40.9063 233.6563,41.1563 C234.1406,41.4375 234.3125,41.6563 234.4063,42.0625 C234.4688,42.4688 234.5,42.5938 234.6406,42.7188 C234.7813,42.8594 235.0156,42.9688 235.2344,42.9688 C235.5,42.9688 235.7656,42.8281 235.9375,42.6094 C236.0469,42.4531 236.0781,42.2656 236.0781,41.8438 L236.0781,40.4219 C236.0781,39.9844 236.0625,39.8594 235.9688,39.7031 C235.8125,39.4375 235.5313,39.2969 235.2344,39.2969 C234.9375,39.2969 234.7344,39.3906 234.5156,39.7031 L234.3438,39.625 Z "/><text fill="#000000" font-family="sans-serif" font-size="12" lengthAdjust="spacingAndGlyphs" textLength="69" x="246" y="48.1074">MasterMind</text><line style="stroke: #A80036; stroke-width: 1.5;" x1="218" x2="317" y1="59.9531" y2="59.9531"/><line style="stroke: #A80036; stroke-width: 1.5;" x1="218" x2="317" y1="67.9531" y2="67.9531"/><!--MD5=[dd91eae41778c45e12552e5329e240e8]
class Turn--><rect fill="#FEFECE" filter="url(#f1etw5q91cq4g3)" height="48" id="Turn" style="stroke: #A80036; stroke-width: 1.5;" width="58" x="195.5" y="135.9531"/><ellipse cx="210.5" cy="151.9531" fill="#ADD1B2" rx="11" ry="11" style="stroke: #A80036; stroke-width: 1.0;"/><path d="M212.8438,147.625 C211.9063,147.1875 211.3125,147.0469 210.4375,147.0469 C207.8125,147.0469 205.8125,149.125 205.8125,151.8438 L205.8125,152.9688 C205.8125,155.5469 207.9219,157.4375 210.8125,157.4375 C212.0313,157.4375 213.1875,157.1406 213.9375,156.5938 C214.5156,156.1875 214.8438,155.7344 214.8438,155.3438 C214.8438,154.8906 214.4531,154.5 213.9844,154.5 C213.7656,154.5 213.5625,154.5781 213.375,154.7656 C212.9219,155.25 212.9219,155.25 212.7344,155.3438 C212.3125,155.6094 211.625,155.7344 210.8594,155.7344 C208.8125,155.7344 207.5156,154.6406 207.5156,152.9375 L207.5156,151.8438 C207.5156,150.0625 208.7656,148.75 210.5,148.75 C211.0781,148.75 211.6875,148.9063 212.1563,149.1563 C212.6406,149.4375 212.8125,149.6563 212.9063,150.0625 C212.9688,150.4688 213,150.5938 213.1406,150.7188 C213.2813,150.8594 213.5156,150.9688 213.7344,150.9688 C214,150.9688 214.2656,150.8281 214.4375,150.6094 C214.5469,150.4531 214.5781,150.2656 214.5781,149.8438 L214.5781,148.4219 C214.5781,147.9844 214.5625,147.8594 214.4688,147.7031 C214.3125,147.4375 214.0313,147.2969 213.7344,147.2969 C213.4375,147.2969 213.2344,147.3906 213.0156,147.7031 L212.8438,147.625 Z "/><text fill="#000000" font-family="sans-serif" font-size="12" lengthAdjust="spacingAndGlyphs" textLength="26" x="224.5" y="156.1074">Turn</text><line style="stroke: #A80036; stroke-width: 1.5;" x1="196.5" x2="252.5" y1="167.9531" y2="167.9531"/><line style="stroke: #A80036; stroke-width: 1.5;" x1="196.5" x2="252.5" y1="175.9531" y2="175.9531"/><!--MD5=[9563755d011c5cec7ec66dc53565a59e]
class Board--><rect fill="#FEFECE" filter="url(#f1etw5q91cq4g3)" height="48" id="Board" style="stroke: #A80036; stroke-width: 1.5;" width="68" x="283.5" y="243.9531"/><ellipse cx="298.5" cy="259.9531" fill="#ADD1B2" rx="11" ry="11" style="stroke: #A80036; stroke-width: 1.0;"/><path d="M300.8438,255.625 C299.9063,255.1875 299.3125,255.0469 298.4375,255.0469 C295.8125,255.0469 293.8125,257.125 293.8125,259.8438 L293.8125,260.9688 C293.8125,263.5469 295.9219,265.4375 298.8125,265.4375 C300.0313,265.4375 301.1875,265.1406 301.9375,264.5938 C302.5156,264.1875 302.8438,263.7344 302.8438,263.3438 C302.8438,262.8906 302.4531,262.5 301.9844,262.5 C301.7656,262.5 301.5625,262.5781 301.375,262.7656 C300.9219,263.25 300.9219,263.25 300.7344,263.3438 C300.3125,263.6094 299.625,263.7344 298.8594,263.7344 C296.8125,263.7344 295.5156,262.6406 295.5156,260.9375 L295.5156,259.8438 C295.5156,258.0625 296.7656,256.75 298.5,256.75 C299.0781,256.75 299.6875,256.9063 300.1563,257.1563 C300.6406,257.4375 300.8125,257.6563 300.9063,258.0625 C300.9688,258.4688 301,258.5938 301.1406,258.7188 C301.2813,258.8594 301.5156,258.9688 301.7344,258.9688 C302,258.9688 302.2656,258.8281 302.4375,258.6094 C302.5469,258.4531 302.5781,258.2656 302.5781,257.8438 L302.5781,256.4219 C302.5781,255.9844 302.5625,255.8594 302.4688,255.7031 C302.3125,255.4375 302.0313,255.2969 301.7344,255.2969 C301.4375,255.2969 301.2344,255.3906 301.0156,255.7031 L300.8438,255.625 Z "/><text fill="#000000" font-family="sans-serif" font-size="12" lengthAdjust="spacingAndGlyphs" textLength="36" x="312.5" y="264.1074">Board</text><line style="stroke: #A80036; stroke-width: 1.5;" x1="284.5" x2="350.5" y1="275.9531" y2="275.9531"/><line style="stroke: #A80036; stroke-width: 1.5;" x1="284.5" x2="350.5" y1="283.9531" y2="283.9531"/><!--MD5=[2cb47ba637a0d19583e6199456f6ad0b]
class Player--><rect fill="#FEFECE" filter="url(#f1etw5q91cq4g3)" height="48" id="Player" style="stroke: #A80036; stroke-width: 1.5;" width="68" x="180.5" y="243.9531"/><ellipse cx="195.5" cy="259.9531" fill="#ADD1B2" rx="11" ry="11" style="stroke: #A80036; stroke-width: 1.0;"/><path d="M197.8438,255.625 C196.9063,255.1875 196.3125,255.0469 195.4375,255.0469 C192.8125,255.0469 190.8125,257.125 190.8125,259.8438 L190.8125,260.9688 C190.8125,263.5469 192.9219,265.4375 195.8125,265.4375 C197.0313,265.4375 198.1875,265.1406 198.9375,264.5938 C199.5156,264.1875 199.8438,263.7344 199.8438,263.3438 C199.8438,262.8906 199.4531,262.5 198.9844,262.5 C198.7656,262.5 198.5625,262.5781 198.375,262.7656 C197.9219,263.25 197.9219,263.25 197.7344,263.3438 C197.3125,263.6094 196.625,263.7344 195.8594,263.7344 C193.8125,263.7344 192.5156,262.6406 192.5156,260.9375 L192.5156,259.8438 C192.5156,258.0625 193.7656,256.75 195.5,256.75 C196.0781,256.75 196.6875,256.9063 197.1563,257.1563 C197.6406,257.4375 197.8125,257.6563 197.9063,258.0625 C197.9688,258.4688 198,258.5938 198.1406,258.7188 C198.2813,258.8594 198.5156,258.9688 198.7344,258.9688 C199,258.9688 199.2656,258.8281 199.4375,258.6094 C199.5469,258.4531 199.5781,258.2656 199.5781,257.8438 L199.5781,256.4219 C199.5781,255.9844 199.5625,255.8594 199.4688,255.7031 C199.3125,255.4375 199.0313,255.2969 198.7344,255.2969 C198.4375,255.2969 198.2344,255.3906 198.0156,255.7031 L197.8438,255.625 Z "/><text fill="#000000" font-family="sans-serif" font-size="12" lengthAdjust="spacingAndGlyphs" textLength="36" x="209.5" y="264.1074">Player</text><line style="stroke: #A80036; stroke-width: 1.5;" x1="181.5" x2="247.5" y1="275.9531" y2="275.9531"/><line style="stroke: #A80036; stroke-width: 1.5;" x1="181.5" x2="247.5" y1="283.9531" y2="283.9531"/><!--MD5=[2e69174041fa7eb3bebc5f460ee56291]
class Human--><rect fill="#FEFECE" filter="url(#f1etw5q91cq4g3)" height="48" id="Human" style="stroke: #A80036; stroke-width: 1.5;" width="73" x="74" y="351.9531"/><ellipse cx="89" cy="367.9531" fill="#ADD1B2" rx="11" ry="11" style="stroke: #A80036; stroke-width: 1.0;"/><path d="M91.3438,363.625 C90.4063,363.1875 89.8125,363.0469 88.9375,363.0469 C86.3125,363.0469 84.3125,365.125 84.3125,367.8438 L84.3125,368.9688 C84.3125,371.5469 86.4219,373.4375 89.3125,373.4375 C90.5313,373.4375 91.6875,373.1406 92.4375,372.5938 C93.0156,372.1875 93.3438,371.7344 93.3438,371.3438 C93.3438,370.8906 92.9531,370.5 92.4844,370.5 C92.2656,370.5 92.0625,370.5781 91.875,370.7656 C91.4219,371.25 91.4219,371.25 91.2344,371.3438 C90.8125,371.6094 90.125,371.7344 89.3594,371.7344 C87.3125,371.7344 86.0156,370.6406 86.0156,368.9375 L86.0156,367.8438 C86.0156,366.0625 87.2656,364.75 89,364.75 C89.5781,364.75 90.1875,364.9063 90.6563,365.1563 C91.1406,365.4375 91.3125,365.6563 91.4063,366.0625 C91.4688,366.4688 91.5,366.5938 91.6406,366.7188 C91.7813,366.8594 92.0156,366.9688 92.2344,366.9688 C92.5,366.9688 92.7656,366.8281 92.9375,366.6094 C93.0469,366.4531 93.0781,366.2656 93.0781,365.8438 L93.0781,364.4219 C93.0781,363.9844 93.0625,363.8594 92.9688,363.7031 C92.8125,363.4375 92.5313,363.2969 92.2344,363.2969 C91.9375,363.2969 91.7344,363.3906 91.5156,363.7031 L91.3438,363.625 Z "/><text fill="#000000" font-family="sans-serif" font-size="12" lengthAdjust="spacingAndGlyphs" textLength="41" x="103" y="372.1074">Human</text><line style="stroke: #A80036; stroke-width: 1.5;" x1="75" x2="146" y1="383.9531" y2="383.9531"/><line style="stroke: #A80036; stroke-width: 1.5;" x1="75" x2="146" y1="391.9531" y2="391.9531"/><!--MD5=[db25027423b3b96a5b12184dc6d389a4]
class Computer--><rect fill="#FEFECE" filter="url(#f1etw5q91cq4g3)" height="48" id="Computer" style="stroke: #A80036; stroke-width: 1.5;" width="91" x="274" y="351.9531"/><ellipse cx="289" cy="367.9531" fill="#ADD1B2" rx="11" ry="11" style="stroke: #A80036; stroke-width: 1.0;"/><path d="M291.3438,363.625 C290.4063,363.1875 289.8125,363.0469 288.9375,363.0469 C286.3125,363.0469 284.3125,365.125 284.3125,367.8438 L284.3125,368.9688 C284.3125,371.5469 286.4219,373.4375 289.3125,373.4375 C290.5313,373.4375 291.6875,373.1406 292.4375,372.5938 C293.0156,372.1875 293.3438,371.7344 293.3438,371.3438 C293.3438,370.8906 292.9531,370.5 292.4844,370.5 C292.2656,370.5 292.0625,370.5781 291.875,370.7656 C291.4219,371.25 291.4219,371.25 291.2344,371.3438 C290.8125,371.6094 290.125,371.7344 289.3594,371.7344 C287.3125,371.7344 286.0156,370.6406 286.0156,368.9375 L286.0156,367.8438 C286.0156,366.0625 287.2656,364.75 289,364.75 C289.5781,364.75 290.1875,364.9063 290.6563,365.1563 C291.1406,365.4375 291.3125,365.6563 291.4063,366.0625 C291.4688,366.4688 291.5,366.5938 291.6406,366.7188 C291.7813,366.8594 292.0156,366.9688 292.2344,366.9688 C292.5,366.9688 292.7656,366.8281 292.9375,366.6094 C293.0469,366.4531 293.0781,366.2656 293.0781,365.8438 L293.0781,364.4219 C293.0781,363.9844 293.0625,363.8594 292.9688,363.7031 C292.8125,363.4375 292.5313,363.2969 292.2344,363.2969 C291.9375,363.2969 291.7344,363.3906 291.5156,363.7031 L291.3438,363.625 Z "/><text fill="#000000" font-family="sans-serif" font-size="12" lengthAdjust="spacingAndGlyphs" textLength="59" x="303" y="372.1074">Computer</text><line style="stroke: #A80036; stroke-width: 1.5;" x1="275" x2="364" y1="383.9531" y2="383.9531"/><line style="stroke: #A80036; stroke-width: 1.5;" x1="275" x2="364" y1="391.9531" y2="391.9531"/><!--MD5=[5a5a8b3a661705821451d8f0afdb3b5f]
class Secret--><rect fill="#FEFECE" filter="url(#f1etw5q91cq4g3)" height="48" id="Secret" style="stroke: #A80036; stroke-width: 1.5;" width="72" x="417.5" y="459.9531"/><ellipse cx="432.5" cy="475.9531" fill="#ADD1B2" rx="11" ry="11" style="stroke: #A80036; stroke-width: 1.0;"/><path d="M434.8438,471.625 C433.9063,471.1875 433.3125,471.0469 432.4375,471.0469 C429.8125,471.0469 427.8125,473.125 427.8125,475.8438 L427.8125,476.9688 C427.8125,479.5469 429.9219,481.4375 432.8125,481.4375 C434.0313,481.4375 435.1875,481.1406 435.9375,480.5938 C436.5156,480.1875 436.8438,479.7344 436.8438,479.3438 C436.8438,478.8906 436.4531,478.5 435.9844,478.5 C435.7656,478.5 435.5625,478.5781 435.375,478.7656 C434.9219,479.25 434.9219,479.25 434.7344,479.3438 C434.3125,479.6094 433.625,479.7344 432.8594,479.7344 C430.8125,479.7344 429.5156,478.6406 429.5156,476.9375 L429.5156,475.8438 C429.5156,474.0625 430.7656,472.75 432.5,472.75 C433.0781,472.75 433.6875,472.9063 434.1563,473.1563 C434.6406,473.4375 434.8125,473.6563 434.9063,474.0625 C434.9688,474.4688 435,474.5938 435.1406,474.7188 C435.2813,474.8594 435.5156,474.9688 435.7344,474.9688 C436,474.9688 436.2656,474.8281 436.4375,474.6094 C436.5469,474.4531 436.5781,474.2656 436.5781,473.8438 L436.5781,472.4219 C436.5781,471.9844 436.5625,471.8594 436.4688,471.7031 C436.3125,471.4375 436.0313,471.2969 435.7344,471.2969 C435.4375,471.2969 435.2344,471.3906 435.0156,471.7031 L434.8438,471.625 Z "/><text fill="#000000" font-family="sans-serif" font-size="12" lengthAdjust="spacingAndGlyphs" textLength="40" x="446.5" y="480.1074">Secret</text><line style="stroke: #A80036; stroke-width: 1.5;" x1="418.5" x2="488.5" y1="491.9531" y2="491.9531"/><line style="stroke: #A80036; stroke-width: 1.5;" x1="418.5" x2="488.5" y1="499.9531" y2="499.9531"/><!--MD5=[1a502b0dbedafd291c48f46ef8646183]
class Feedback--><rect fill="#FEFECE" filter="url(#f1etw5q91cq4g3)" height="48" id="Feedback" style="stroke: #A80036; stroke-width: 1.5;" width="92" x="290.5" y="459.9531"/><ellipse cx="305.5" cy="475.9531" fill="#ADD1B2" rx="11" ry="11" style="stroke: #A80036; stroke-width: 1.0;"/><path d="M307.8438,471.625 C306.9063,471.1875 306.3125,471.0469 305.4375,471.0469 C302.8125,471.0469 300.8125,473.125 300.8125,475.8438 L300.8125,476.9688 C300.8125,479.5469 302.9219,481.4375 305.8125,481.4375 C307.0313,481.4375 308.1875,481.1406 308.9375,480.5938 C309.5156,480.1875 309.8438,479.7344 309.8438,479.3438 C309.8438,478.8906 309.4531,478.5 308.9844,478.5 C308.7656,478.5 308.5625,478.5781 308.375,478.7656 C307.9219,479.25 307.9219,479.25 307.7344,479.3438 C307.3125,479.6094 306.625,479.7344 305.8594,479.7344 C303.8125,479.7344 302.5156,478.6406 302.5156,476.9375 L302.5156,475.8438 C302.5156,474.0625 303.7656,472.75 305.5,472.75 C306.0781,472.75 306.6875,472.9063 307.1563,473.1563 C307.6406,473.4375 307.8125,473.6563 307.9063,474.0625 C307.9688,474.4688 308,474.5938 308.1406,474.7188 C308.2813,474.8594 308.5156,474.9688 308.7344,474.9688 C309,474.9688 309.2656,474.8281 309.4375,474.6094 C309.5469,474.4531 309.5781,474.2656 309.5781,473.8438 L309.5781,472.4219 C309.5781,471.9844 309.5625,471.8594 309.4688,471.7031 C309.3125,471.4375 309.0313,471.2969 308.7344,471.2969 C308.4375,471.2969 308.2344,471.3906 308.0156,471.7031 L307.8438,471.625 Z "/><text fill="#000000" font-family="sans-serif" font-size="12" lengthAdjust="spacingAndGlyphs" textLength="60" x="319.5" y="480.1074">Feedback</text><line style="stroke: #A80036; stroke-width: 1.5;" x1="291.5" x2="381.5" y1="491.9531" y2="491.9531"/><line style="stroke: #A80036; stroke-width: 1.5;" x1="291.5" x2="381.5" y1="499.9531" y2="499.9531"/><!--MD5=[104e5d109054ca2306d3d90fb1853d58]
class Proposed--><rect fill="#FEFECE" filter="url(#f1etw5q91cq4g3)" height="48" id="Proposed" style="stroke: #A80036; stroke-width: 1.5;" width="90" x="165.5" y="459.9531"/><ellipse cx="180.5" cy="475.9531" fill="#ADD1B2" rx="11" ry="11" style="stroke: #A80036; stroke-width: 1.0;"/><path d="M182.8438,471.625 C181.9063,471.1875 181.3125,471.0469 180.4375,471.0469 C177.8125,471.0469 175.8125,473.125 175.8125,475.8438 L175.8125,476.9688 C175.8125,479.5469 177.9219,481.4375 180.8125,481.4375 C182.0313,481.4375 183.1875,481.1406 183.9375,480.5938 C184.5156,480.1875 184.8438,479.7344 184.8438,479.3438 C184.8438,478.8906 184.4531,478.5 183.9844,478.5 C183.7656,478.5 183.5625,478.5781 183.375,478.7656 C182.9219,479.25 182.9219,479.25 182.7344,479.3438 C182.3125,479.6094 181.625,479.7344 180.8594,479.7344 C178.8125,479.7344 177.5156,478.6406 177.5156,476.9375 L177.5156,475.8438 C177.5156,474.0625 178.7656,472.75 180.5,472.75 C181.0781,472.75 181.6875,472.9063 182.1563,473.1563 C182.6406,473.4375 182.8125,473.6563 182.9063,474.0625 C182.9688,474.4688 183,474.5938 183.1406,474.7188 C183.2813,474.8594 183.5156,474.9688 183.7344,474.9688 C184,474.9688 184.2656,474.8281 184.4375,474.6094 C184.5469,474.4531 184.5781,474.2656 184.5781,473.8438 L184.5781,472.4219 C184.5781,471.9844 184.5625,471.8594 184.4688,471.7031 C184.3125,471.4375 184.0313,471.2969 183.7344,471.2969 C183.4375,471.2969 183.2344,471.3906 183.0156,471.7031 L182.8438,471.625 Z "/><text fill="#000000" font-family="sans-serif" font-size="12" lengthAdjust="spacingAndGlyphs" textLength="58" x="194.5" y="480.1074">Proposed</text><line style="stroke: #A80036; stroke-width: 1.5;" x1="166.5" x2="254.5" y1="491.9531" y2="491.9531"/><line style="stroke: #A80036; stroke-width: 1.5;" x1="166.5" x2="254.5" y1="499.9531" y2="499.9531"/><!--MD5=[0992d3fdc9d3d7c02b735131bb70871d]
class Goal--><rect fill="#FEFECE" filter="url(#f1etw5q91cq4g3)" height="48" id="Goal" style="stroke: #A80036; stroke-width: 1.5;" width="59" x="71" y="459.9531"/><ellipse cx="86" cy="475.9531" fill="#ADD1B2" rx="11" ry="11" style="stroke: #A80036; stroke-width: 1.0;"/><path d="M88.3438,471.625 C87.4063,471.1875 86.8125,471.0469 85.9375,471.0469 C83.3125,471.0469 81.3125,473.125 81.3125,475.8438 L81.3125,476.9688 C81.3125,479.5469 83.4219,481.4375 86.3125,481.4375 C87.5313,481.4375 88.6875,481.1406 89.4375,480.5938 C90.0156,480.1875 90.3438,479.7344 90.3438,479.3438 C90.3438,478.8906 89.9531,478.5 89.4844,478.5 C89.2656,478.5 89.0625,478.5781 88.875,478.7656 C88.4219,479.25 88.4219,479.25 88.2344,479.3438 C87.8125,479.6094 87.125,479.7344 86.3594,479.7344 C84.3125,479.7344 83.0156,478.6406 83.0156,476.9375 L83.0156,475.8438 C83.0156,474.0625 84.2656,472.75 86,472.75 C86.5781,472.75 87.1875,472.9063 87.6563,473.1563 C88.1406,473.4375 88.3125,473.6563 88.4063,474.0625 C88.4688,474.4688 88.5,474.5938 88.6406,474.7188 C88.7813,474.8594 89.0156,474.9688 89.2344,474.9688 C89.5,474.9688 89.7656,474.8281 89.9375,474.6094 C90.0469,474.4531 90.0781,474.2656 90.0781,473.8438 L90.0781,472.4219 C90.0781,471.9844 90.0625,471.8594 89.9688,471.7031 C89.8125,471.4375 89.5313,471.2969 89.2344,471.2969 C88.9375,471.2969 88.7344,471.3906 88.5156,471.7031 L88.3438,471.625 Z "/><text fill="#000000" font-family="sans-serif" font-size="12" lengthAdjust="spacingAndGlyphs" textLength="27" x="100" y="480.1074">Goal</text><line style="stroke: #A80036; stroke-width: 1.5;" x1="72" x2="129" y1="491.9531" y2="491.9531"/><line style="stroke: #A80036; stroke-width: 1.5;" x1="72" x2="129" y1="499.9531" y2="499.9531"/><!--MD5=[5f0899136ed8f523b18ed05779c24112]
class Match--><rect fill="#FEFECE" filter="url(#f1etw5q91cq4g3)" height="48" id="Match" style="stroke: #A80036; stroke-width: 1.5;" width="67" x="100" y="567.9531"/><ellipse cx="115" cy="583.9531" fill="#ADD1B2" rx="11" ry="11" style="stroke: #A80036; stroke-width: 1.0;"/><path d="M117.3438,579.625 C116.4063,579.1875 115.8125,579.0469 114.9375,579.0469 C112.3125,579.0469 110.3125,581.125 110.3125,583.8438 L110.3125,584.9688 C110.3125,587.5469 112.4219,589.4375 115.3125,589.4375 C116.5313,589.4375 117.6875,589.1406 118.4375,588.5938 C119.0156,588.1875 119.3438,587.7344 119.3438,587.3438 C119.3438,586.8906 118.9531,586.5 118.4844,586.5 C118.2656,586.5 118.0625,586.5781 117.875,586.7656 C117.4219,587.25 117.4219,587.25 117.2344,587.3438 C116.8125,587.6094 116.125,587.7344 115.3594,587.7344 C113.3125,587.7344 112.0156,586.6406 112.0156,584.9375 L112.0156,583.8438 C112.0156,582.0625 113.2656,580.75 115,580.75 C115.5781,580.75 116.1875,580.9063 116.6563,581.1563 C117.1406,581.4375 117.3125,581.6563 117.4063,582.0625 C117.4688,582.4688 117.5,582.5938 117.6406,582.7188 C117.7813,582.8594 118.0156,582.9688 118.2344,582.9688 C118.5,582.9688 118.7656,582.8281 118.9375,582.6094 C119.0469,582.4531 119.0781,582.2656 119.0781,581.8438 L119.0781,580.4219 C119.0781,579.9844 119.0625,579.8594 118.9688,579.7031 C118.8125,579.4375 118.5313,579.2969 118.2344,579.2969 C117.9375,579.2969 117.7344,579.3906 117.5156,579.7031 L117.3438,579.625 Z "/><text fill="#000000" font-family="sans-serif" font-size="12" lengthAdjust="spacingAndGlyphs" textLength="35" x="129" y="588.1074">Match</text><line style="stroke: #A80036; stroke-width: 1.5;" x1="101" x2="166" y1="599.9531" y2="599.9531"/><line style="stroke: #A80036; stroke-width: 1.5;" x1="101" x2="166" y1="607.9531" y2="607.9531"/><!--MD5=[28491d17d5ee38c9c116625a5ffc259a]
class Combination--><rect fill="#FEFECE" filter="url(#f1etw5q91cq4g3)" height="48" id="Combination" style="stroke: #A80036; stroke-width: 1.5;" width="106" x="400.5" y="351.9531"/><ellipse cx="415.5" cy="367.9531" fill="#ADD1B2" rx="11" ry="11" style="stroke: #A80036; stroke-width: 1.0;"/><path d="M417.8438,363.625 C416.9063,363.1875 416.3125,363.0469 415.4375,363.0469 C412.8125,363.0469 410.8125,365.125 410.8125,367.8438 L410.8125,368.9688 C410.8125,371.5469 412.9219,373.4375 415.8125,373.4375 C417.0313,373.4375 418.1875,373.1406 418.9375,372.5938 C419.5156,372.1875 419.8438,371.7344 419.8438,371.3438 C419.8438,370.8906 419.4531,370.5 418.9844,370.5 C418.7656,370.5 418.5625,370.5781 418.375,370.7656 C417.9219,371.25 417.9219,371.25 417.7344,371.3438 C417.3125,371.6094 416.625,371.7344 415.8594,371.7344 C413.8125,371.7344 412.5156,370.6406 412.5156,368.9375 L412.5156,367.8438 C412.5156,366.0625 413.7656,364.75 415.5,364.75 C416.0781,364.75 416.6875,364.9063 417.1563,365.1563 C417.6406,365.4375 417.8125,365.6563 417.9063,366.0625 C417.9688,366.4688 418,366.5938 418.1406,366.7188 C418.2813,366.8594 418.5156,366.9688 418.7344,366.9688 C419,366.9688 419.2656,366.8281 419.4375,366.6094 C419.5469,366.4531 419.5781,366.2656 419.5781,365.8438 L419.5781,364.4219 C419.5781,363.9844 419.5625,363.8594 419.4688,363.7031 C419.3125,363.4375 419.0313,363.2969 418.7344,363.2969 C418.4375,363.2969 418.2344,363.3906 418.0156,363.7031 L417.8438,363.625 Z "/><text fill="#000000" font-family="sans-serif" font-size="12" lengthAdjust="spacingAndGlyphs" textLength="74" x="429.5" y="372.1074">Combination</text><line style="stroke: #A80036; stroke-width: 1.5;" x1="401.5" x2="505.5" y1="383.9531" y2="383.9531"/><line style="stroke: #A80036; stroke-width: 1.5;" x1="401.5" x2="505.5" y1="391.9531" y2="391.9531"/><!--MD5=[05aedcff764caeeb5d443618a4d90de7]
class Row--><rect fill="#FEFECE" filter="url(#f1etw5q91cq4g3)" height="48" id="Row" style="stroke: #A80036; stroke-width: 1.5;" width="57" x="182" y="351.9531"/><ellipse cx="197" cy="367.9531" fill="#ADD1B2" rx="11" ry="11" style="stroke: #A80036; stroke-width: 1.0;"/><path d="M199.3438,363.625 C198.4063,363.1875 197.8125,363.0469 196.9375,363.0469 C194.3125,363.0469 192.3125,365.125 192.3125,367.8438 L192.3125,368.9688 C192.3125,371.5469 194.4219,373.4375 197.3125,373.4375 C198.5313,373.4375 199.6875,373.1406 200.4375,372.5938 C201.0156,372.1875 201.3438,371.7344 201.3438,371.3438 C201.3438,370.8906 200.9531,370.5 200.4844,370.5 C200.2656,370.5 200.0625,370.5781 199.875,370.7656 C199.4219,371.25 199.4219,371.25 199.2344,371.3438 C198.8125,371.6094 198.125,371.7344 197.3594,371.7344 C195.3125,371.7344 194.0156,370.6406 194.0156,368.9375 L194.0156,367.8438 C194.0156,366.0625 195.2656,364.75 197,364.75 C197.5781,364.75 198.1875,364.9063 198.6563,365.1563 C199.1406,365.4375 199.3125,365.6563 199.4063,366.0625 C199.4688,366.4688 199.5,366.5938 199.6406,366.7188 C199.7813,366.8594 200.0156,366.9688 200.2344,366.9688 C200.5,366.9688 200.7656,366.8281 200.9375,366.6094 C201.0469,366.4531 201.0781,366.2656 201.0781,365.8438 L201.0781,364.4219 C201.0781,363.9844 201.0625,363.8594 200.9688,363.7031 C200.8125,363.4375 200.5313,363.2969 200.2344,363.2969 C199.9375,363.2969 199.7344,363.3906 199.5156,363.7031 L199.3438,363.625 Z "/><text fill="#000000" font-family="sans-serif" font-size="12" lengthAdjust="spacingAndGlyphs" textLength="25" x="211" y="372.1074">Row</text><line style="stroke: #A80036; stroke-width: 1.5;" x1="183" x2="238" y1="383.9531" y2="383.9531"/><line style="stroke: #A80036; stroke-width: 1.5;" x1="183" x2="238" y1="391.9531" y2="391.9531"/><!--MD5=[4296a1ab0576a383a1a509d52c22ebf0]
class Type--><rect fill="#FEFECE" filter="url(#f1etw5q91cq4g3)" height="48" id="Type" style="stroke: #A80036; stroke-width: 1.5;" width="62" x="102.5" y="675.9531"/><ellipse cx="117.5" cy="691.9531" fill="#ADD1B2" rx="11" ry="11" style="stroke: #A80036; stroke-width: 1.0;"/><path d="M119.8438,687.625 C118.9063,687.1875 118.3125,687.0469 117.4375,687.0469 C114.8125,687.0469 112.8125,689.125 112.8125,691.8438 L112.8125,692.9688 C112.8125,695.5469 114.9219,697.4375 117.8125,697.4375 C119.0313,697.4375 120.1875,697.1406 120.9375,696.5938 C121.5156,696.1875 121.8438,695.7344 121.8438,695.3438 C121.8438,694.8906 121.4531,694.5 120.9844,694.5 C120.7656,694.5 120.5625,694.5781 120.375,694.7656 C119.9219,695.25 119.9219,695.25 119.7344,695.3438 C119.3125,695.6094 118.625,695.7344 117.8594,695.7344 C115.8125,695.7344 114.5156,694.6406 114.5156,692.9375 L114.5156,691.8438 C114.5156,690.0625 115.7656,688.75 117.5,688.75 C118.0781,688.75 118.6875,688.9063 119.1563,689.1563 C119.6406,689.4375 119.8125,689.6563 119.9063,690.0625 C119.9688,690.4688 120,690.5938 120.1406,690.7188 C120.2813,690.8594 120.5156,690.9688 120.7344,690.9688 C121,690.9688 121.2656,690.8281 121.4375,690.6094 C121.5469,690.4531 121.5781,690.2656 121.5781,689.8438 L121.5781,688.4219 C121.5781,687.9844 121.5625,687.8594 121.4688,687.7031 C121.3125,687.4375 121.0313,687.2969 120.7344,687.2969 C120.4375,687.2969 120.2344,687.3906 120.0156,687.7031 L119.8438,687.625 Z "/><text fill="#000000" font-family="sans-serif" font-size="12" lengthAdjust="spacingAndGlyphs" textLength="30" x="131.5" y="696.1074">Type</text><line style="stroke: #A80036; stroke-width: 1.5;" x1="103.5" x2="163.5" y1="707.9531" y2="707.9531"/><line style="stroke: #A80036; stroke-width: 1.5;" x1="103.5" x2="163.5" y1="715.9531" y2="715.9531"/><!--MD5=[389da720e9cad4669038328090731c7d]
class MatchPosition--><rect fill="#FEFECE" filter="url(#f1etw5q91cq4g3)" height="48" id="MatchPosition" style="stroke: #A80036; stroke-width: 1.5;" width="113" x="7" y="783.9531"/><ellipse cx="22" cy="799.9531" fill="#ADD1B2" rx="11" ry="11" style="stroke: #A80036; stroke-width: 1.0;"/><path d="M24.3438,795.625 C23.4063,795.1875 22.8125,795.0469 21.9375,795.0469 C19.3125,795.0469 17.3125,797.125 17.3125,799.8438 L17.3125,800.9688 C17.3125,803.5469 19.4219,805.4375 22.3125,805.4375 C23.5313,805.4375 24.6875,805.1406 25.4375,804.5938 C26.0156,804.1875 26.3438,803.7344 26.3438,803.3438 C26.3438,802.8906 25.9531,802.5 25.4844,802.5 C25.2656,802.5 25.0625,802.5781 24.875,802.7656 C24.4219,803.25 24.4219,803.25 24.2344,803.3438 C23.8125,803.6094 23.125,803.7344 22.3594,803.7344 C20.3125,803.7344 19.0156,802.6406 19.0156,800.9375 L19.0156,799.8438 C19.0156,798.0625 20.2656,796.75 22,796.75 C22.5781,796.75 23.1875,796.9063 23.6563,797.1563 C24.1406,797.4375 24.3125,797.6563 24.4063,798.0625 C24.4688,798.4688 24.5,798.5938 24.6406,798.7188 C24.7813,798.8594 25.0156,798.9688 25.2344,798.9688 C25.5,798.9688 25.7656,798.8281 25.9375,798.6094 C26.0469,798.4531 26.0781,798.2656 26.0781,797.8438 L26.0781,796.4219 C26.0781,795.9844 26.0625,795.8594 25.9688,795.7031 C25.8125,795.4375 25.5313,795.2969 25.2344,795.2969 C24.9375,795.2969 24.7344,795.3906 24.5156,795.7031 L24.3438,795.625 Z "/><text fill="#000000" font-family="sans-serif" font-size="12" lengthAdjust="spacingAndGlyphs" textLength="81" x="36" y="804.1074">MatchPosition</text><line style="stroke: #A80036; stroke-width: 1.5;" x1="8" x2="119" y1="815.9531" y2="815.9531"/><line style="stroke: #A80036; stroke-width: 1.5;" x1="8" x2="119" y1="823.9531" y2="823.9531"/><!--MD5=[ab39621db146a5a3c3e31600d86ee37b]
class MatchColor--><rect fill="#FEFECE" filter="url(#f1etw5q91cq4g3)" height="48" id="MatchColor" style="stroke: #A80036; stroke-width: 1.5;" width="99" x="155" y="783.9531"/><ellipse cx="170" cy="799.9531" fill="#ADD1B2" rx="11" ry="11" style="stroke: #A80036; stroke-width: 1.0;"/><path d="M172.3438,795.625 C171.4063,795.1875 170.8125,795.0469 169.9375,795.0469 C167.3125,795.0469 165.3125,797.125 165.3125,799.8438 L165.3125,800.9688 C165.3125,803.5469 167.4219,805.4375 170.3125,805.4375 C171.5313,805.4375 172.6875,805.1406 173.4375,804.5938 C174.0156,804.1875 174.3438,803.7344 174.3438,803.3438 C174.3438,802.8906 173.9531,802.5 173.4844,802.5 C173.2656,802.5 173.0625,802.5781 172.875,802.7656 C172.4219,803.25 172.4219,803.25 172.2344,803.3438 C171.8125,803.6094 171.125,803.7344 170.3594,803.7344 C168.3125,803.7344 167.0156,802.6406 167.0156,800.9375 L167.0156,799.8438 C167.0156,798.0625 168.2656,796.75 170,796.75 C170.5781,796.75 171.1875,796.9063 171.6563,797.1563 C172.1406,797.4375 172.3125,797.6563 172.4063,798.0625 C172.4688,798.4688 172.5,798.5938 172.6406,798.7188 C172.7813,798.8594 173.0156,798.9688 173.2344,798.9688 C173.5,798.9688 173.7656,798.8281 173.9375,798.6094 C174.0469,798.4531 174.0781,798.2656 174.0781,797.8438 L174.0781,796.4219 C174.0781,795.9844 174.0625,795.8594 173.9688,795.7031 C173.8125,795.4375 173.5313,795.2969 173.2344,795.2969 C172.9375,795.2969 172.7344,795.3906 172.5156,795.7031 L172.3438,795.625 Z "/><text fill="#000000" font-family="sans-serif" font-size="12" lengthAdjust="spacingAndGlyphs" textLength="67" x="184" y="804.1074">MatchColor</text><line style="stroke: #A80036; stroke-width: 1.5;" x1="156" x2="253" y1="815.9531" y2="815.9531"/><line style="stroke: #A80036; stroke-width: 1.5;" x1="156" x2="253" y1="823.9531" y2="823.9531"/><!--MD5=[a64a835c3d62471a77f615251fdde58a]
class Position--><rect fill="#FEFECE" filter="url(#f1etw5q91cq4g3)" height="48" id="Position" style="stroke: #A80036; stroke-width: 1.5;" width="78" x="524.5" y="459.9531"/><ellipse cx="539.5" cy="475.9531" fill="#ADD1B2" rx="11" ry="11" style="stroke: #A80036; stroke-width: 1.0;"/><path d="M541.8438,471.625 C540.9063,471.1875 540.3125,471.0469 539.4375,471.0469 C536.8125,471.0469 534.8125,473.125 534.8125,475.8438 L534.8125,476.9688 C534.8125,479.5469 536.9219,481.4375 539.8125,481.4375 C541.0313,481.4375 542.1875,481.1406 542.9375,480.5938 C543.5156,480.1875 543.8438,479.7344 543.8438,479.3438 C543.8438,478.8906 543.4531,478.5 542.9844,478.5 C542.7656,478.5 542.5625,478.5781 542.375,478.7656 C541.9219,479.25 541.9219,479.25 541.7344,479.3438 C541.3125,479.6094 540.625,479.7344 539.8594,479.7344 C537.8125,479.7344 536.5156,478.6406 536.5156,476.9375 L536.5156,475.8438 C536.5156,474.0625 537.7656,472.75 539.5,472.75 C540.0781,472.75 540.6875,472.9063 541.1563,473.1563 C541.6406,473.4375 541.8125,473.6563 541.9063,474.0625 C541.9688,474.4688 542,474.5938 542.1406,474.7188 C542.2813,474.8594 542.5156,474.9688 542.7344,474.9688 C543,474.9688 543.2656,474.8281 543.4375,474.6094 C543.5469,474.4531 543.5781,474.2656 543.5781,473.8438 L543.5781,472.4219 C543.5781,471.9844 543.5625,471.8594 543.4688,471.7031 C543.3125,471.4375 543.0313,471.2969 542.7344,471.2969 C542.4375,471.2969 542.2344,471.3906 542.0156,471.7031 L541.8438,471.625 Z "/><text fill="#000000" font-family="sans-serif" font-size="12" lengthAdjust="spacingAndGlyphs" textLength="46" x="553.5" y="480.1074">Position</text><line style="stroke: #A80036; stroke-width: 1.5;" x1="525.5" x2="601.5" y1="491.9531" y2="491.9531"/><line style="stroke: #A80036; stroke-width: 1.5;" x1="525.5" x2="601.5" y1="499.9531" y2="499.9531"/><!--MD5=[18eee71c88ab61f27581b8cbdd3ef5ee]
class Color--><rect fill="#FEFECE" filter="url(#f1etw5q91cq4g3)" height="48" id="Color" style="stroke: #A80036; stroke-width: 1.5;" width="64" x="531.5" y="567.9531"/><ellipse cx="546.5" cy="583.9531" fill="#ADD1B2" rx="11" ry="11" style="stroke: #A80036; stroke-width: 1.0;"/><path d="M548.8438,579.625 C547.9063,579.1875 547.3125,579.0469 546.4375,579.0469 C543.8125,579.0469 541.8125,581.125 541.8125,583.8438 L541.8125,584.9688 C541.8125,587.5469 543.9219,589.4375 546.8125,589.4375 C548.0313,589.4375 549.1875,589.1406 549.9375,588.5938 C550.5156,588.1875 550.8438,587.7344 550.8438,587.3438 C550.8438,586.8906 550.4531,586.5 549.9844,586.5 C549.7656,586.5 549.5625,586.5781 549.375,586.7656 C548.9219,587.25 548.9219,587.25 548.7344,587.3438 C548.3125,587.6094 547.625,587.7344 546.8594,587.7344 C544.8125,587.7344 543.5156,586.6406 543.5156,584.9375 L543.5156,583.8438 C543.5156,582.0625 544.7656,580.75 546.5,580.75 C547.0781,580.75 547.6875,580.9063 548.1563,581.1563 C548.6406,581.4375 548.8125,581.6563 548.9063,582.0625 C548.9688,582.4688 549,582.5938 549.1406,582.7188 C549.2813,582.8594 549.5156,582.9688 549.7344,582.9688 C550,582.9688 550.2656,582.8281 550.4375,582.6094 C550.5469,582.4531 550.5781,582.2656 550.5781,581.8438 L550.5781,580.4219 C550.5781,579.9844 550.5625,579.8594 550.4688,579.7031 C550.3125,579.4375 550.0313,579.2969 549.7344,579.2969 C549.4375,579.2969 549.2344,579.3906 549.0156,579.7031 L548.8438,579.625 Z "/><text fill="#000000" font-family="sans-serif" font-size="12" lengthAdjust="spacingAndGlyphs" textLength="32" x="560.5" y="588.1074">Color</text><line style="stroke: #A80036; stroke-width: 1.5;" x1="532.5" x2="594.5" y1="599.9531" y2="599.9531"/><line style="stroke: #A80036; stroke-width: 1.5;" x1="532.5" x2="594.5" y1="607.9531" y2="607.9531"/><!--MD5=[602b15352a41052f4d1a7dc34102cb35]
class White--><rect fill="#FEFECE" filter="url(#f1etw5q91cq4g3)" height="48" id="White" style="stroke: #A80036; stroke-width: 1.5;" width="66" x="725.5" y="675.9531"/><ellipse cx="740.5" cy="691.9531" fill="#ADD1B2" rx="11" ry="11" style="stroke: #A80036; stroke-width: 1.0;"/><path d="M742.8438,687.625 C741.9063,687.1875 741.3125,687.0469 740.4375,687.0469 C737.8125,687.0469 735.8125,689.125 735.8125,691.8438 L735.8125,692.9688 C735.8125,695.5469 737.9219,697.4375 740.8125,697.4375 C742.0313,697.4375 743.1875,697.1406 743.9375,696.5938 C744.5156,696.1875 744.8438,695.7344 744.8438,695.3438 C744.8438,694.8906 744.4531,694.5 743.9844,694.5 C743.7656,694.5 743.5625,694.5781 743.375,694.7656 C742.9219,695.25 742.9219,695.25 742.7344,695.3438 C742.3125,695.6094 741.625,695.7344 740.8594,695.7344 C738.8125,695.7344 737.5156,694.6406 737.5156,692.9375 L737.5156,691.8438 C737.5156,690.0625 738.7656,688.75 740.5,688.75 C741.0781,688.75 741.6875,688.9063 742.1563,689.1563 C742.6406,689.4375 742.8125,689.6563 742.9063,690.0625 C742.9688,690.4688 743,690.5938 743.1406,690.7188 C743.2813,690.8594 743.5156,690.9688 743.7344,690.9688 C744,690.9688 744.2656,690.8281 744.4375,690.6094 C744.5469,690.4531 744.5781,690.2656 744.5781,689.8438 L744.5781,688.4219 C744.5781,687.9844 744.5625,687.8594 744.4688,687.7031 C744.3125,687.4375 744.0313,687.2969 743.7344,687.2969 C743.4375,687.2969 743.2344,687.3906 743.0156,687.7031 L742.8438,687.625 Z "/><text fill="#000000" font-family="sans-serif" font-size="12" lengthAdjust="spacingAndGlyphs" textLength="34" x="754.5" y="696.1074">White</text><line style="stroke: #A80036; stroke-width: 1.5;" x1="726.5" x2="790.5" y1="707.9531" y2="707.9531"/><line style="stroke: #A80036; stroke-width: 1.5;" x1="726.5" x2="790.5" y1="715.9531" y2="715.9531"/><!--MD5=[e5fcaaf7dd279fcaa419853012f8d36f]
class Blue--><rect fill="#FEFECE" filter="url(#f1etw5q91cq4g3)" height="48" id="Blue" style="stroke: #A80036; stroke-width: 1.5;" width="58" x="826.5" y="675.9531"/><ellipse cx="841.5" cy="691.9531" fill="#ADD1B2" rx="11" ry="11" style="stroke: #A80036; stroke-width: 1.0;"/><path d="M843.8438,687.625 C842.9063,687.1875 842.3125,687.0469 841.4375,687.0469 C838.8125,687.0469 836.8125,689.125 836.8125,691.8438 L836.8125,692.9688 C836.8125,695.5469 838.9219,697.4375 841.8125,697.4375 C843.0313,697.4375 844.1875,697.1406 844.9375,696.5938 C845.5156,696.1875 845.8438,695.7344 845.8438,695.3438 C845.8438,694.8906 845.4531,694.5 844.9844,694.5 C844.7656,694.5 844.5625,694.5781 844.375,694.7656 C843.9219,695.25 843.9219,695.25 843.7344,695.3438 C843.3125,695.6094 842.625,695.7344 841.8594,695.7344 C839.8125,695.7344 838.5156,694.6406 838.5156,692.9375 L838.5156,691.8438 C838.5156,690.0625 839.7656,688.75 841.5,688.75 C842.0781,688.75 842.6875,688.9063 843.1563,689.1563 C843.6406,689.4375 843.8125,689.6563 843.9063,690.0625 C843.9688,690.4688 844,690.5938 844.1406,690.7188 C844.2813,690.8594 844.5156,690.9688 844.7344,690.9688 C845,690.9688 845.2656,690.8281 845.4375,690.6094 C845.5469,690.4531 845.5781,690.2656 845.5781,689.8438 L845.5781,688.4219 C845.5781,687.9844 845.5625,687.8594 845.4688,687.7031 C845.3125,687.4375 845.0313,687.2969 844.7344,687.2969 C844.4375,687.2969 844.2344,687.3906 844.0156,687.7031 L843.8438,687.625 Z "/><text fill="#000000" font-family="sans-serif" font-size="12" lengthAdjust="spacingAndGlyphs" textLength="26" x="855.5" y="696.1074">Blue</text><line style="stroke: #A80036; stroke-width: 1.5;" x1="827.5" x2="883.5" y1="707.9531" y2="707.9531"/><line style="stroke: #A80036; stroke-width: 1.5;" x1="827.5" x2="883.5" y1="715.9531" y2="715.9531"/><!--MD5=[08be530975453a47bdc5b5370100f2fc]
class Red--><rect fill="#FEFECE" filter="url(#f1etw5q91cq4g3)" height="48" id="Red" style="stroke: #A80036; stroke-width: 1.5;" width="55" x="920" y="675.9531"/><ellipse cx="935" cy="691.9531" fill="#ADD1B2" rx="11" ry="11" style="stroke: #A80036; stroke-width: 1.0;"/><path d="M937.3438,687.625 C936.4063,687.1875 935.8125,687.0469 934.9375,687.0469 C932.3125,687.0469 930.3125,689.125 930.3125,691.8438 L930.3125,692.9688 C930.3125,695.5469 932.4219,697.4375 935.3125,697.4375 C936.5313,697.4375 937.6875,697.1406 938.4375,696.5938 C939.0156,696.1875 939.3438,695.7344 939.3438,695.3438 C939.3438,694.8906 938.9531,694.5 938.4844,694.5 C938.2656,694.5 938.0625,694.5781 937.875,694.7656 C937.4219,695.25 937.4219,695.25 937.2344,695.3438 C936.8125,695.6094 936.125,695.7344 935.3594,695.7344 C933.3125,695.7344 932.0156,694.6406 932.0156,692.9375 L932.0156,691.8438 C932.0156,690.0625 933.2656,688.75 935,688.75 C935.5781,688.75 936.1875,688.9063 936.6563,689.1563 C937.1406,689.4375 937.3125,689.6563 937.4063,690.0625 C937.4688,690.4688 937.5,690.5938 937.6406,690.7188 C937.7813,690.8594 938.0156,690.9688 938.2344,690.9688 C938.5,690.9688 938.7656,690.8281 938.9375,690.6094 C939.0469,690.4531 939.0781,690.2656 939.0781,689.8438 L939.0781,688.4219 C939.0781,687.9844 939.0625,687.8594 938.9688,687.7031 C938.8125,687.4375 938.5313,687.2969 938.2344,687.2969 C937.9375,687.2969 937.7344,687.3906 937.5156,687.7031 L937.3438,687.625 Z "/><text fill="#000000" font-family="sans-serif" font-size="12" lengthAdjust="spacingAndGlyphs" textLength="23" x="949" y="696.1074">Red</text><line style="stroke: #A80036; stroke-width: 1.5;" x1="921" x2="974" y1="707.9531" y2="707.9531"/><line style="stroke: #A80036; stroke-width: 1.5;" x1="921" x2="974" y1="715.9531" y2="715.9531"/><!--MD5=[d0fb6b9bec42d096e013c1394c3b1710]
class Pink--><rect fill="#FEFECE" filter="url(#f1etw5q91cq4g3)" height="48" id="Pink" style="stroke: #A80036; stroke-width: 1.5;" width="55" x="217" y="675.9531"/><ellipse cx="232" cy="691.9531" fill="#ADD1B2" rx="11" ry="11" style="stroke: #A80036; stroke-width: 1.0;"/><path d="M234.3438,687.625 C233.4063,687.1875 232.8125,687.0469 231.9375,687.0469 C229.3125,687.0469 227.3125,689.125 227.3125,691.8438 L227.3125,692.9688 C227.3125,695.5469 229.4219,697.4375 232.3125,697.4375 C233.5313,697.4375 234.6875,697.1406 235.4375,696.5938 C236.0156,696.1875 236.3438,695.7344 236.3438,695.3438 C236.3438,694.8906 235.9531,694.5 235.4844,694.5 C235.2656,694.5 235.0625,694.5781 234.875,694.7656 C234.4219,695.25 234.4219,695.25 234.2344,695.3438 C233.8125,695.6094 233.125,695.7344 232.3594,695.7344 C230.3125,695.7344 229.0156,694.6406 229.0156,692.9375 L229.0156,691.8438 C229.0156,690.0625 230.2656,688.75 232,688.75 C232.5781,688.75 233.1875,688.9063 233.6563,689.1563 C234.1406,689.4375 234.3125,689.6563 234.4063,690.0625 C234.4688,690.4688 234.5,690.5938 234.6406,690.7188 C234.7813,690.8594 235.0156,690.9688 235.2344,690.9688 C235.5,690.9688 235.7656,690.8281 235.9375,690.6094 C236.0469,690.4531 236.0781,690.2656 236.0781,689.8438 L236.0781,688.4219 C236.0781,687.9844 236.0625,687.8594 235.9688,687.7031 C235.8125,687.4375 235.5313,687.2969 235.2344,687.2969 C234.9375,687.2969 234.7344,687.3906 234.5156,687.7031 L234.3438,687.625 Z "/><text fill="#000000" font-family="sans-serif" font-size="12" lengthAdjust="spacingAndGlyphs" textLength="23" x="246" y="696.1074">Pink</text><line style="stroke: #A80036; stroke-width: 1.5;" x1="218" x2="271" y1="707.9531" y2="707.9531"/><line style="stroke: #A80036; stroke-width: 1.5;" x1="218" x2="271" y1="715.9531" y2="715.9531"/><!--MD5=[3778656fef14cf416db6e1fe750da04b]
class Green--><rect fill="#FEFECE" filter="url(#f1etw5q91cq4g3)" height="48" id="Green" style="stroke: #A80036; stroke-width: 1.5;" width="69" x="307" y="675.9531"/><ellipse cx="322" cy="691.9531" fill="#ADD1B2" rx="11" ry="11" style="stroke: #A80036; stroke-width: 1.0;"/><path d="M324.3438,687.625 C323.4063,687.1875 322.8125,687.0469 321.9375,687.0469 C319.3125,687.0469 317.3125,689.125 317.3125,691.8438 L317.3125,692.9688 C317.3125,695.5469 319.4219,697.4375 322.3125,697.4375 C323.5313,697.4375 324.6875,697.1406 325.4375,696.5938 C326.0156,696.1875 326.3438,695.7344 326.3438,695.3438 C326.3438,694.8906 325.9531,694.5 325.4844,694.5 C325.2656,694.5 325.0625,694.5781 324.875,694.7656 C324.4219,695.25 324.4219,695.25 324.2344,695.3438 C323.8125,695.6094 323.125,695.7344 322.3594,695.7344 C320.3125,695.7344 319.0156,694.6406 319.0156,692.9375 L319.0156,691.8438 C319.0156,690.0625 320.2656,688.75 322,688.75 C322.5781,688.75 323.1875,688.9063 323.6563,689.1563 C324.1406,689.4375 324.3125,689.6563 324.4063,690.0625 C324.4688,690.4688 324.5,690.5938 324.6406,690.7188 C324.7813,690.8594 325.0156,690.9688 325.2344,690.9688 C325.5,690.9688 325.7656,690.8281 325.9375,690.6094 C326.0469,690.4531 326.0781,690.2656 326.0781,689.8438 L326.0781,688.4219 C326.0781,687.9844 326.0625,687.8594 325.9688,687.7031 C325.8125,687.4375 325.5313,687.2969 325.2344,687.2969 C324.9375,687.2969 324.7344,687.3906 324.5156,687.7031 L324.3438,687.625 Z "/><text fill="#000000" font-family="sans-serif" font-size="12" lengthAdjust="spacingAndGlyphs" textLength="37" x="336" y="696.1074">Green</text><line style="stroke: #A80036; stroke-width: 1.5;" x1="308" x2="375" y1="707.9531" y2="707.9531"/><line style="stroke: #A80036; stroke-width: 1.5;" x1="308" x2="375" y1="715.9531" y2="715.9531"/><!--MD5=[59a197a4e33151d5112197f2c5528c04]
class Yellow--><rect fill="#FEFECE" filter="url(#f1etw5q91cq4g3)" height="48" id="Yellow" style="stroke: #A80036; stroke-width: 1.5;" width="71" x="411" y="675.9531"/><ellipse cx="426" cy="691.9531" fill="#ADD1B2" rx="11" ry="11" style="stroke: #A80036; stroke-width: 1.0;"/><path d="M428.3438,687.625 C427.4063,687.1875 426.8125,687.0469 425.9375,687.0469 C423.3125,687.0469 421.3125,689.125 421.3125,691.8438 L421.3125,692.9688 C421.3125,695.5469 423.4219,697.4375 426.3125,697.4375 C427.5313,697.4375 428.6875,697.1406 429.4375,696.5938 C430.0156,696.1875 430.3438,695.7344 430.3438,695.3438 C430.3438,694.8906 429.9531,694.5 429.4844,694.5 C429.2656,694.5 429.0625,694.5781 428.875,694.7656 C428.4219,695.25 428.4219,695.25 428.2344,695.3438 C427.8125,695.6094 427.125,695.7344 426.3594,695.7344 C424.3125,695.7344 423.0156,694.6406 423.0156,692.9375 L423.0156,691.8438 C423.0156,690.0625 424.2656,688.75 426,688.75 C426.5781,688.75 427.1875,688.9063 427.6563,689.1563 C428.1406,689.4375 428.3125,689.6563 428.4063,690.0625 C428.4688,690.4688 428.5,690.5938 428.6406,690.7188 C428.7813,690.8594 429.0156,690.9688 429.2344,690.9688 C429.5,690.9688 429.7656,690.8281 429.9375,690.6094 C430.0469,690.4531 430.0781,690.2656 430.0781,689.8438 L430.0781,688.4219 C430.0781,687.9844 430.0625,687.8594 429.9688,687.7031 C429.8125,687.4375 429.5313,687.2969 429.2344,687.2969 C428.9375,687.2969 428.7344,687.3906 428.5156,687.7031 L428.3438,687.625 Z "/><text fill="#000000" font-family="sans-serif" font-size="12" lengthAdjust="spacingAndGlyphs" textLength="39" x="440" y="696.1074">Yellow</text><line style="stroke: #A80036; stroke-width: 1.5;" x1="412" x2="481" y1="707.9531" y2="707.9531"/><line style="stroke: #A80036; stroke-width: 1.5;" x1="412" x2="481" y1="715.9531" y2="715.9531"/><!--MD5=[fa0ec411bd672e54a5650440425fcb69]
class Gray--><rect fill="#FEFECE" filter="url(#f1etw5q91cq4g3)" height="48" id="Gray" style="stroke: #A80036; stroke-width: 1.5;" width="60" x="517.5" y="675.9531"/><ellipse cx="532.5" cy="691.9531" fill="#ADD1B2" rx="11" ry="11" style="stroke: #A80036; stroke-width: 1.0;"/><path d="M534.8438,687.625 C533.9063,687.1875 533.3125,687.0469 532.4375,687.0469 C529.8125,687.0469 527.8125,689.125 527.8125,691.8438 L527.8125,692.9688 C527.8125,695.5469 529.9219,697.4375 532.8125,697.4375 C534.0313,697.4375 535.1875,697.1406 535.9375,696.5938 C536.5156,696.1875 536.8438,695.7344 536.8438,695.3438 C536.8438,694.8906 536.4531,694.5 535.9844,694.5 C535.7656,694.5 535.5625,694.5781 535.375,694.7656 C534.9219,695.25 534.9219,695.25 534.7344,695.3438 C534.3125,695.6094 533.625,695.7344 532.8594,695.7344 C530.8125,695.7344 529.5156,694.6406 529.5156,692.9375 L529.5156,691.8438 C529.5156,690.0625 530.7656,688.75 532.5,688.75 C533.0781,688.75 533.6875,688.9063 534.1563,689.1563 C534.6406,689.4375 534.8125,689.6563 534.9063,690.0625 C534.9688,690.4688 535,690.5938 535.1406,690.7188 C535.2813,690.8594 535.5156,690.9688 535.7344,690.9688 C536,690.9688 536.2656,690.8281 536.4375,690.6094 C536.5469,690.4531 536.5781,690.2656 536.5781,689.8438 L536.5781,688.4219 C536.5781,687.9844 536.5625,687.8594 536.4688,687.7031 C536.3125,687.4375 536.0313,687.2969 535.7344,687.2969 C535.4375,687.2969 535.2344,687.3906 535.0156,687.7031 L534.8438,687.625 Z "/><text fill="#000000" font-family="sans-serif" font-size="12" lengthAdjust="spacingAndGlyphs" textLength="28" x="546.5" y="696.1074">Gray</text><line style="stroke: #A80036; stroke-width: 1.5;" x1="518.5" x2="576.5" y1="707.9531" y2="707.9531"/><line style="stroke: #A80036; stroke-width: 1.5;" x1="518.5" x2="576.5" y1="715.9531" y2="715.9531"/><!--MD5=[8691ac77a468677548132a10c9750c1a]
class Orange--><rect fill="#FEFECE" filter="url(#f1etw5q91cq4g3)" height="48" id="Orange" style="stroke: #A80036; stroke-width: 1.5;" width="77" x="613" y="675.9531"/><ellipse cx="628" cy="691.9531" fill="#ADD1B2" rx="11" ry="11" style="stroke: #A80036; stroke-width: 1.0;"/><path d="M630.3438,687.625 C629.4063,687.1875 628.8125,687.0469 627.9375,687.0469 C625.3125,687.0469 623.3125,689.125 623.3125,691.8438 L623.3125,692.9688 C623.3125,695.5469 625.4219,697.4375 628.3125,697.4375 C629.5313,697.4375 630.6875,697.1406 631.4375,696.5938 C632.0156,696.1875 632.3438,695.7344 632.3438,695.3438 C632.3438,694.8906 631.9531,694.5 631.4844,694.5 C631.2656,694.5 631.0625,694.5781 630.875,694.7656 C630.4219,695.25 630.4219,695.25 630.2344,695.3438 C629.8125,695.6094 629.125,695.7344 628.3594,695.7344 C626.3125,695.7344 625.0156,694.6406 625.0156,692.9375 L625.0156,691.8438 C625.0156,690.0625 626.2656,688.75 628,688.75 C628.5781,688.75 629.1875,688.9063 629.6563,689.1563 C630.1406,689.4375 630.3125,689.6563 630.4063,690.0625 C630.4688,690.4688 630.5,690.5938 630.6406,690.7188 C630.7813,690.8594 631.0156,690.9688 631.2344,690.9688 C631.5,690.9688 631.7656,690.8281 631.9375,690.6094 C632.0469,690.4531 632.0781,690.2656 632.0781,689.8438 L632.0781,688.4219 C632.0781,687.9844 632.0625,687.8594 631.9688,687.7031 C631.8125,687.4375 631.5313,687.2969 631.2344,687.2969 C630.9375,687.2969 630.7344,687.3906 630.5156,687.7031 L630.3438,687.625 Z "/><text fill="#000000" font-family="sans-serif" font-size="12" lengthAdjust="spacingAndGlyphs" textLength="45" x="642" y="696.1074">Orange</text><line style="stroke: #A80036; stroke-width: 1.5;" x1="614" x2="689" y1="707.9531" y2="707.9531"/><line style="stroke: #A80036; stroke-width: 1.5;" x1="614" x2="689" y1="715.9531" y2="715.9531"/><!--MD5=[7c3ef586289b1e1f42993b6b847a58fe]
link MasterMind to Turn--><path codeLine="5" d="M253.6602,87.0734 C253.6602,87.0734 243.473,112.1821 238.883,123.4961 " fill="none" id="MasterMind-Turn" style="stroke: #A80036; stroke-width: 1.0;"/><polygon fill="#A80036" points="233.961,135.6311,241.0508,128.7949,235.8406,130.9979,233.6376,125.7876,233.961,135.6311" style="stroke: #A80036; stroke-width: 1.0;"/><line style="stroke: #A80036; stroke-width: 1.0;" x1="235.8406" x2="238.8475" y1="130.9979" y2="123.5846"/><polygon fill="#A80036" points="258.17,75.9531,252.2083,80.01,253.6602,87.0734,259.6219,83.0166,258.17,75.9531" style="stroke: #A80036; stroke-width: 1.0;"/><!--MD5=[752a304acd908b6c7d5b0ca84385af00]
link MasterMind to Board--><path codeLine="6" d="M275.6755,87.9476 C275.6755,87.9476 299.872,191.5061 309.101,231.0051 " fill="none" id="MasterMind-Board" style="stroke: #A80036; stroke-width: 1.0;"/><polygon fill="#A80036" points="312.061,243.6731,313.908,233.999,310.9232,238.8043,306.1179,235.8195,312.061,243.6731" style="stroke: #A80036; stroke-width: 1.0;"/><line style="stroke: #A80036; stroke-width: 1.0;" x1="310.9232" x2="309.103" y1="238.8043" y2="231.0136"/><polygon fill="#A80036" points="272.946,76.2621,270.4156,83.0147,275.6755,87.9476,278.2059,81.195,272.946,76.2621" style="stroke: #A80036; stroke-width: 1.0;"/><!--MD5=[d81713d91ad05be3b975338c4816ee0b]
link Turn to Player--><path codeLine="8" d="M221.2039,195.9002 C221.2039,195.9002 218.94,219.8931 217.922,230.6771 " fill="none" id="Turn-Player" style="stroke: #A80036; stroke-width: 1.0;"/><polygon fill="#A80036" points="216.7,243.6311,221.5269,235.0462,217.1692,238.6532,213.5623,234.2955,216.7,243.6311" style="stroke: #A80036; stroke-width: 1.0;"/><line style="stroke: #A80036; stroke-width: 1.0;" x1="217.1692" x2="217.921" y1="238.6532" y2="230.6891"/><polygon fill="#A80036" points="222.33,183.9531,217.7846,189.5513,221.2039,195.9002,225.7493,190.302,222.33,183.9531" style="stroke: #A80036; stroke-width: 1.0;"/><text fill="#000000" font-family="sans-serif" font-size="13" lengthAdjust="spacingAndGlyphs" textLength="8" x="208.2613" y="232.9576">2</text><!--MD5=[1a5e42fe08df60c271858a4aebb9d8af]
reverse link Player to Human--><path codeLine="10" d="M177.923,306.2331 C163.098,321.3441 146.434,338.3281 133.382,351.6311 " fill="none" id="Player-backto-Human" style="stroke: #A80036; stroke-width: 1.0;"/><polygon fill="none" points="172.93,301.3271,191.934,291.9531,182.923,311.1321,172.93,301.3271" style="stroke: #A80036; stroke-width: 1.0;"/><!--MD5=[9b9808c9db634c8d87854855974c807f]
reverse link Player to Computer--><path codeLine="11" d="M251.429,306.2331 C266.396,321.3441 283.221,338.3281 296.398,351.6311 " fill="none" id="Player-backto-Computer" style="stroke: #A80036; stroke-width: 1.0;"/><polygon fill="none" points="246.385,311.0891,237.283,291.9531,256.332,301.2361,246.385,311.0891" style="stroke: #A80036; stroke-width: 1.0;"/><!--MD5=[d0e11b640bd1a0904e7aea8b5b81fad2]
link Computer to Secret--><path codeLine="13" d="M348.576,399.9531 C369.59,416.5771 398.026,439.0711 419.995,456.4491 " fill="none" id="Computer-to-Secret" style="stroke: #A80036; stroke-width: 1.0;"/><polygon fill="#A80036" points="424.018,459.6311,419.4402,450.9108,420.0963,456.5295,414.4776,457.1855,424.018,459.6311" style="stroke: #A80036; stroke-width: 1.0;"/><!--MD5=[4f0a54e8553088b560ee1f702589d72c]
link Computer to Feedback--><path codeLine="14" d="M325.0893,411.8017 C325.0893,411.8017 328.911,435.6341 330.66,446.5371 " fill="none" id="Computer-Feedback" style="stroke: #A80036; stroke-width: 1.0;"/><polygon fill="#A80036" points="332.76,459.6311,335.2845,450.1113,331.9683,454.6942,327.3854,451.378,332.76,459.6311" style="stroke: #A80036; stroke-width: 1.0;"/><line style="stroke: #A80036; stroke-width: 1.0;" x1="331.9683" x2="330.701" y1="454.6942" y2="446.7956"/><polygon fill="#FFFFFF" points="323.189,399.9531,320.1896,406.5108,325.0893,411.8017,328.0887,405.244,323.189,399.9531" style="stroke: #A80036; stroke-width: 1.0;"/><!--MD5=[91e73efdb25366bcbd33f26de26dc6d6]
link Human to Proposed--><path codeLine="15" d="M132.199,399.9531 C147.686,416.3701 168.574,438.5121 184.882,455.7971 " fill="none" id="Human-to-Proposed" style="stroke: #A80036; stroke-width: 1.0;"/><polygon fill="#A80036" points="188.499,459.6311,185.2343,450.3391,185.0686,455.9935,179.4141,455.8278,188.499,459.6311" style="stroke: #A80036; stroke-width: 1.0;"/><!--MD5=[3f8e2e6b313fa2f95d8f0f70cb8cc320]
link Human to Goal--><path codeLine="16" d="M107.2038,411.9002 C107.2038,411.9002 104.9397,435.8931 103.9223,446.6771 " fill="none" id="Human-Goal" style="stroke: #A80036; stroke-width: 1.0;"/><polygon fill="#A80036" points="102.7001,459.6311,107.5271,451.0462,103.1693,454.6532,99.5624,450.2955,102.7001,459.6311" style="stroke: #A80036; stroke-width: 1.0;"/><line style="stroke: #A80036; stroke-width: 1.0;" x1="103.1693" x2="103.9212" y1="454.6532" y2="446.6891"/><polygon fill="#FFFFFF" points="108.33,399.9531,103.7846,405.5513,107.2038,411.9002,111.7493,406.302,108.33,399.9531" style="stroke: #A80036; stroke-width: 1.0;"/><!--MD5=[292ba62811fc6f22d6d2d0aa2d306dc5]
link Computer to Proposed--><path codeLine="18" d="M295.849,399.9531 C278.968,416.3701 256.199,438.5121 238.424,455.7971 " fill="none" id="Computer-to-Proposed" style="stroke: #A80036; stroke-width: 1.0; stroke-dasharray: 7.0,7.0;"/><polygon fill="#A80036" points="234.482,459.6311,243.7228,456.2241,238.0665,456.1452,238.1453,450.4889,234.482,459.6311" style="stroke: #A80036; stroke-width: 1.0;"/><!--MD5=[751715ead6bed570d6121f7a58e3a017]
link Goal to Match--><path codeLine="19" d="M107.661,507.9531 C112.642,523.9561 119.318,545.3991 124.636,562.4811 " fill="none" id="Goal-to-Match" style="stroke: #A80036; stroke-width: 1.0; stroke-dasharray: 7.0,7.0;"/><polygon fill="#A80036" points="126.24,567.6311,127.3824,557.8488,124.753,562.8574,119.7444,560.2279,126.24,567.6311" style="stroke: #A80036; stroke-width: 1.0;"/><!--MD5=[633f8ed6ffbfe325377a4692199b4967]
reverse link Combination to Secret--><path codeLine="21" d="M453.5,419.9771 C453.5,433.5321 453.5,447.9911 453.5,459.6311 " fill="none" id="Combination-backto-Secret" style="stroke: #A80036; stroke-width: 1.0;"/><polygon fill="none" points="446.5,419.9531,453.5,399.9531,460.5,419.9531,446.5,419.9531" style="stroke: #A80036; stroke-width: 1.0;"/><!--MD5=[092a60b239d16d082b1792f5eed79788]
reverse link Combination to Proposed--><path codeLine="22" d="M382.423,407.9581 C341.515,425.8021 291.337,447.6911 255.775,463.2041 " fill="none" id="Combination-backto-Proposed" style="stroke: #A80036; stroke-width: 1.0;"/><polygon fill="none" points="379.642,401.5341,400.773,399.9531,385.24,414.3661,379.642,401.5341" style="stroke: #A80036; stroke-width: 1.0;"/><!--MD5=[81a21657a1001a246267099d3917a4ec]
link Board to Secret--><path codeLine="24" d="M363.6157,272.9942 C363.6157,272.9942 488.197,299.6681 523.5,351.9531 C545.185,384.0701 517.288,423.6231 490.548,450.8141 " fill="none" id="Board-Secret" style="stroke: #A80036; stroke-width: 1.0;"/><polygon fill="#A80036" points="481.221,459.8841,490.4619,456.4775,484.8056,456.3984,484.8848,450.7421,481.221,459.8841" style="stroke: #A80036; stroke-width: 1.0;"/><line style="stroke: #A80036; stroke-width: 1.0;" x1="484.8056" x2="490.541" y1="456.3984" y2="450.8211"/><polygon fill="#A80036" points="351.717,271.4381,357.1477,276.1824,363.6157,272.9942,358.185,268.2499,351.717,271.4381" style="stroke: #A80036; stroke-width: 1.0;"/><text fill="#000000" font-family="sans-serif" font-size="13" lengthAdjust="spacingAndGlyphs" textLength="8" x="479.2995" y="448.8785">1</text><!--MD5=[31a9d8b21f25dd9b21908e2453140741]
link Board to Row--><path codeLine="25" d="M285.7576,300.3981 C285.7576,300.3981 256.539,329.3441 243.282,342.4771 " fill="none" id="Board-Row" style="stroke: #A80036; stroke-width: 1.0;"/><polygon fill="#A80036" points="234.042,351.6311,243.251,348.1392,237.5943,348.1124,237.6211,342.4556,234.042,351.6311" style="stroke: #A80036; stroke-width: 1.0;"/><line style="stroke: #A80036; stroke-width: 1.0;" x1="237.5943" x2="243.277" y1="348.1124" y2="342.4826"/><polygon fill="#FFFFFF" points="294.283,291.9531,287.2053,293.3338,285.7576,300.3981,292.8353,299.0174,294.283,291.9531" style="stroke: #A80036; stroke-width: 1.0;"/><text fill="#000000" font-family="sans-serif" font-size="13" lengthAdjust="spacingAndGlyphs" textLength="32" x="203.8804" y="340.9576">0..12</text><!--MD5=[6553d0a40caff7724f6201e81f05884f]
link Row to Proposed--><path codeLine="27" d="M210.5,411.9531 C210.5,411.9531 210.5,435.6301 210.5,446.3171 " fill="none" id="Row-Proposed" style="stroke: #A80036; stroke-width: 1.0;"/><polygon fill="#A80036" points="210.5,459.6311,214.5,450.6311,210.5,454.6311,206.5,450.6311,210.5,459.6311" style="stroke: #A80036; stroke-width: 1.0;"/><line style="stroke: #A80036; stroke-width: 1.0;" x1="210.5" x2="210.5" y1="454.6311" y2="446.6311"/><polygon fill="#A80036" points="210.5,399.9531,206.5,405.9531,210.5,411.9531,214.5,405.9531,210.5,399.9531" style="stroke: #A80036; stroke-width: 1.0;"/><text fill="#000000" font-family="sans-serif" font-size="13" lengthAdjust="spacingAndGlyphs" textLength="8" x="201.525" y="448.9576">1</text><!--MD5=[5487204ee87cea885f66fb0bb042cccc]
link Row to Feedback--><path codeLine="28" d="M247.0226,407.6784 C247.0226,407.6784 282.601,437.6101 298.658,451.1171 " fill="none" id="Row-Feedback" style="stroke: #A80036; stroke-width: 1.0;"/><polygon fill="#A80036" points="308.778,459.6311,304.4662,450.7763,304.9519,456.4122,299.316,456.898,308.778,459.6311" style="stroke: #A80036; stroke-width: 1.0;"/><line style="stroke: #A80036; stroke-width: 1.0;" x1="304.9519" x2="298.83" y1="456.4122" y2="451.2626"/><polygon fill="#FFFFFF" points="237.84,399.9531,239.8562,406.8766,247.0226,407.6784,245.0064,400.7549,237.84,399.9531" style="stroke: #A80036; stroke-width: 1.0;"/><text fill="#000000" font-family="sans-serif" font-size="13" lengthAdjust="spacingAndGlyphs" textLength="24" x="275.0958" y="448.9576">0..1</text><!--MD5=[a0252133c0d84e268d4ffb5fc92c1f20]
link Feedback to Match--><path codeLine="30" d="M281.8147,513.5072 C281.8147,513.5072 208.955,551.5531 178.917,567.2381 " fill="none" id="Feedback-Match" style="stroke: #A80036; stroke-width: 1.0;"/><polygon fill="#A80036" points="167.091,573.4131,176.9203,572.7934,171.5232,571.0989,173.2176,565.7018,167.091,573.4131" style="stroke: #A80036; stroke-width: 1.0;"/><line style="stroke: #A80036; stroke-width: 1.0;" x1="171.5232" x2="178.614" y1="571.0989" y2="567.3956"/><polygon fill="#FFFFFF" points="292.452,507.9531,285.282,507.1844,281.8147,513.5072,288.9847,514.2759,292.452,507.9531" style="stroke: #A80036; stroke-width: 1.0;"/><text fill="#000000" font-family="sans-serif" font-size="13" lengthAdjust="spacingAndGlyphs" textLength="24" x="174.927" y="566.0158">0..5</text><!--MD5=[49aa8a71c116a1986e4e95a0eac11b46]
link Match to Type--><path codeLine="31" d="M133.5,627.9531 C133.5,627.9531 133.5,651.6301 133.5,662.3171 " fill="none" id="Match-Type" style="stroke: #A80036; stroke-width: 1.0;"/><polygon fill="#A80036" points="133.5,675.6311,137.5,666.6311,133.5,670.6311,129.5,666.6311,133.5,675.6311" style="stroke: #A80036; stroke-width: 1.0;"/><line style="stroke: #A80036; stroke-width: 1.0;" x1="133.5" x2="133.5" y1="670.6311" y2="662.6311"/><polygon fill="#A80036" points="133.5,615.9531,129.5,621.9531,133.5,627.9531,137.5,621.9531,133.5,615.9531" style="stroke: #A80036; stroke-width: 1.0;"/><!--MD5=[ac8822f893a327933e93eaa6107d57d3]
reverse link Type to MatchPosition--><path codeLine="32" d="M106.9964,741.0871 C97.5099,755.4523 87.1371,771.1597 78.901,783.6315 " fill="none" id="Type-backto-MatchPosition" style="stroke: #A80036; stroke-width: 1.0;"/><polygon fill="none" points="101.4485,736.7854,118.311,723.9531,113.131,744.5003,101.4485,736.7854" style="stroke: #A80036; stroke-width: 1.0;"/><!--MD5=[3ebfa1d35f7384d3057356c600a6c3b2]
reverse link Type to MatchColor--><path codeLine="33" d="M160.062,740.6088 C169.77,755.1029 180.432,771.0212 188.879,783.6315 " fill="none" id="Type-backto-MatchColor" style="stroke: #A80036; stroke-width: 1.0;"/><polygon fill="none" points="154.22,744.466,148.906,723.9531,165.852,736.6748,154.22,744.466" style="stroke: #A80036; stroke-width: 1.0;"/><!--MD5=[28e886d1c90b0b4ab000be4943562f5d]
link Combination to Position--><path codeLine="35" d="M486.0081,408.2807 C486.0081,408.2807 516.17,437.3441 529.799,450.4771 " fill="none" id="Combination-Position" style="stroke: #A80036; stroke-width: 1.0;"/><polygon fill="#A80036" points="539.298,459.6311,535.5931,450.5057,535.6977,456.1616,530.0418,456.2662,539.298,459.6311" style="stroke: #A80036; stroke-width: 1.0;"/><line style="stroke: #A80036; stroke-width: 1.0;" x1="535.6977" x2="529.9375" y1="456.1616" y2="450.6106"/><polygon fill="#A80036" points="477.368,399.9531,478.9122,406.9969,486.0081,408.2807,484.4639,401.2369,477.368,399.9531" style="stroke: #A80036; stroke-width: 1.0;"/><text fill="#000000" font-family="sans-serif" font-size="13" lengthAdjust="spacingAndGlyphs" textLength="8" x="524.4238" y="448.9576">5</text><!--MD5=[e7ac7b8f5c4a475da30b48afbd7f3f65]
link Position to Color--><path codeLine="36" d="M563.5,519.9531 C563.5,519.9531 563.5,543.6301 563.5,554.3171 " fill="none" id="Position-Color" style="stroke: #A80036; stroke-width: 1.0;"/><polygon fill="#A80036" points="563.5,567.6311,567.5,558.6311,563.5,562.6311,559.5,558.6311,563.5,567.6311" style="stroke: #A80036; stroke-width: 1.0;"/><line style="stroke: #A80036; stroke-width: 1.0;" x1="563.5" x2="563.5" y1="562.6311" y2="554.6311"/><polygon fill="#A80036" points="563.5,507.9531,559.5,513.9531,563.5,519.9531,567.5,513.9531,563.5,507.9531" style="stroke: #A80036; stroke-width: 1.0;"/><!--MD5=[c91f43cbec2d140b012557cc0caf1f06]
reverse link Color to White--><path codeLine="37" d="M613.426,620.0921 C648.546,639.1831 694.574,664.2041 725.272,680.8911 " fill="none" id="Color-backto-White" style="stroke: #A80036; stroke-width: 1.0;"/><polygon fill="none" points="609.929,626.1591,595.7,610.4571,616.615,613.8581,609.929,626.1591" style="stroke: #A80036; stroke-width: 1.0;"/><!--MD5=[43364a787a1aa71eb994c83faab9e0a3]
reverse link Color to Blue--><path codeLine="38" d="M615.021,608.2891 C665.092,623.6861 742.957,648.9441 808.5,675.9531 C814.379,678.3761 820.558,681.1931 826.432,684.0081 " fill="none" id="Color-backto-Blue" style="stroke: #A80036; stroke-width: 1.0;"/><polygon fill="none" points="612.795,614.9281,595.697,602.4121,616.868,601.5341,612.795,614.9281" style="stroke: #A80036; stroke-width: 1.0;"/><!--MD5=[fab54b5999e935266d298ad54749f91a]
reverse link Color to Red--><path codeLine="39" d="M615.497,601.7891 C683.007,614.1361 803.861,639.2401 902.5,675.9531 C908.256,678.0951 914.229,680.7861 919.869,683.5641 " fill="none" id="Color-backto-Red" style="stroke: #A80036; stroke-width: 1.0;"/><polygon fill="none" points="614.008,608.6341,595.548,598.2301,616.467,594.8521,614.008,608.6341" style="stroke: #A80036; stroke-width: 1.0;"/><!--MD5=[818e78250036c39a67949adbde0b95b8]
reverse link Color to Pink--><path codeLine="40" d="M511.655,605.7001 C455.841,620.1021 364.915,645.5411 289.5,675.9531 C283.804,678.2501 277.858,681.0101 272.226,683.8091 " fill="none" id="Color-backto-Pink" style="stroke: #A80036; stroke-width: 1.0;"/><polygon fill="none" points="510.113,598.8701,531.221,600.7341,513.558,612.4391,510.113,598.8701" style="stroke: #A80036; stroke-width: 1.0;"/><!--MD5=[9b9d24ea93eb20378c733f632b2003b3]
reverse link Color to Green--><path codeLine="41" d="M513.001,617.0651 C471.127,637.0591 412.713,664.9501 376.012,682.4741 " fill="none" id="Color-backto-Green" style="stroke: #A80036; stroke-width: 1.0;"/><polygon fill="none" points="510.155,610.6671,531.219,608.3661,516.187,623.3011,510.155,610.6671" style="stroke: #A80036; stroke-width: 1.0;"/><!--MD5=[6083f140c68c81feb5a8fefe89deab0b]
reverse link Color to Yellow--><path codeLine="42" d="M523.131,629.5261 C506.26,644.8121 487.155,662.1201 472.242,675.6311 " fill="none" id="Color-backto-Yellow" style="stroke: #A80036; stroke-width: 1.0;"/><polygon fill="none" points="518.591,624.1941,538.113,615.9531,527.991,634.5691,518.591,624.1941" style="stroke: #A80036; stroke-width: 1.0;"/><!--MD5=[f10b1c27b32b03113752eb9fe5c8b1e5]
reverse link Color to Gray--><path codeLine="43" d="M557.006,635.9771 C554.96,649.5321 552.777,663.9911 551.02,675.6311 " fill="none" id="Color-backto-Gray" style="stroke: #A80036; stroke-width: 1.0;"/><polygon fill="none" points="550.122,634.6851,560.028,615.9531,563.965,636.7741,550.122,634.6851" style="stroke: #A80036; stroke-width: 1.0;"/><!--MD5=[fb4153a096dd56f720ff3e3ae4a8e359]
reverse link Color to Orange--><path codeLine="44" d="M595.63,631.6551 C607.872,646.4011 621.44,662.7441 632.139,675.6311 " fill="none" id="Color-backto-Orange" style="stroke: #A80036; stroke-width: 1.0;"/><polygon fill="none" points="589.984,635.8131,582.595,615.9531,600.756,626.8701,589.984,635.8131" style="stroke: #A80036; stroke-width: 1.0;"/><!--MD5=[08fe52bf818d36b4a77aa7763f7d6933]
@startuml
title MasterMind - Diagram

class MasterMind

MasterMind *- -> Turn
MasterMind *- -> Board

Turn *- -> "2" Player

Player <|- - Human
Player <|- - Computer

Computer - -> Secret
Computer o- -> Feedback
Human - -> Proposed
Human o- -> Goal

Computer ..> Proposed
Goal ..> Match

Combination <|- - Secret
Combination <|- - Proposed

Board *- -> "1" Secret
Board o- -> "0..12" Row

Row *- -> "1" Proposed
Row o- -> "0..1" Feedback

Feedback o- -> "0..5" Match
Match *- -> Type
Type <|- - MatchPosition
Type <|- - MatchColor

Combination *- -> "5" Position
Position *- -> Color
Color <|- - White
Color <|- - Blue
Color <|- - Red
Color <|- - Pink
Color <|- - Green
Color <|- - Yellow
Color <|- - Gray
Color <|- - Orange
@enduml

PlantUML version 1.2020.20beta2(Unknown compile time)
(GPL source distribution)
Java Runtime: Java(TM) SE Runtime Environment
JVM: Java HotSpot(TM) 64-Bit Server VM
Default Encoding: UTF-8
Language: en
Country: US
--></g></svg>